<svg width="255" height="197" viewBox="0 0 255 197" fill="none" xmlns="http://www.w3.org/2000/svg">
<path d="M144.105 28.7896C153.281 28.7896 160.746 22.3324 160.746 14.3953C160.746 6.45724 153.281 0 144.105 0C134.93 0 127.464 6.45724 127.464 14.3953C127.464 22.3324 134.93 28.7896 144.105 28.7896ZM144.105 9.59624C147.165 9.59624 149.652 11.749 149.652 14.3953C149.652 17.0407 147.165 19.1934 144.105 19.1934C141.047 19.1934 138.559 17.0407 138.559 14.3953C138.559 11.749 141.047 9.59624 144.105 9.59624ZM192.124 0L206.775 19.4871L191.836 38.3868H235.907V85.6501H213.719V95.0071H190.699V104.124H178.774V78.6833L159.914 71.4866V54.4328L169.421 61.8979H191.531V52.3017H173.705L155.596 38.079C152.548 35.1746 148.153 33.3485 143.273 33.3485H130.516V33.3719C125.303 33.6262 120.532 35.9723 117.614 39.7588L105 56.1266V76.5334H116.093V59.0329L124.969 47.5167V96.257L109.185 117.875L118.565 123L136.063 99.0338V42.9447H143.273C144.615 42.9447 145.848 43.3595 146.809 44.0483L146.756 44.098L147.635 44.7887C148.375 45.6042 148.821 46.6289 148.821 47.7428V77.7412L167.681 84.9388V113.24H147.434V122.837H178.774V113.72H201.794V104.603H224.813V95.2464H247V0L192.124 0ZM212.86 28.7896L220.109 19.6195L212.572 9.59624H235.907V28.7896H212.86Z" fill="url(#paint0_linear)"/>
<path d="M36.768 196L16.128 172.768V196H7.392V124.96H16.128V166.72L36.384 143.392H48.576L23.808 169.6L48.672 196H36.768ZM82.4303 142.432C88.8303 142.432 94.0143 144.384 97.9823 148.288C101.95 152.128 103.934 157.696 103.934 164.992V196H95.2943V166.24C95.2943 160.992 93.9823 156.992 91.3583 154.24C88.7343 151.424 85.1503 150.016 80.6063 150.016C75.9983 150.016 72.3183 151.456 69.5663 154.336C66.8783 157.216 65.5343 161.408 65.5343 166.912V196H56.7983V143.392H65.5343V150.88C67.2623 148.192 69.5983 146.112 72.5423 144.64C75.5503 143.168 78.8463 142.432 82.4303 142.432ZM141.149 196.864C136.221 196.864 131.741 195.744 127.709 193.504C123.741 191.264 120.605 188.096 118.301 184C116.061 179.84 114.941 175.04 114.941 169.6C114.941 164.224 116.093 159.488 118.397 155.392C120.765 151.232 123.965 148.064 127.997 145.888C132.029 143.648 136.541 142.528 141.533 142.528C146.525 142.528 151.037 143.648 155.069 145.888C159.101 148.064 162.269 151.2 164.573 155.296C166.941 159.392 168.125 164.16 168.125 169.6C168.125 175.04 166.909 179.84 164.477 184C162.109 188.096 158.877 191.264 154.781 193.504C150.685 195.744 146.141 196.864 141.149 196.864ZM141.149 189.184C144.285 189.184 147.229 188.448 149.981 186.976C152.733 185.504 154.941 183.296 156.605 180.352C158.333 177.408 159.197 173.824 159.197 169.6C159.197 165.376 158.365 161.792 156.701 158.848C155.037 155.904 152.861 153.728 150.173 152.32C147.485 150.848 144.573 150.112 141.437 150.112C138.237 150.112 135.293 150.848 132.605 152.32C129.981 153.728 127.869 155.904 126.269 158.848C124.669 161.792 123.869 165.376 123.869 169.6C123.869 173.888 124.637 177.504 126.173 180.448C127.773 183.392 129.885 185.6 132.509 187.072C135.133 188.48 138.013 189.184 141.149 189.184ZM249.691 143.392L233.275 196H224.251L211.579 154.24L198.907 196H189.883L173.371 143.392H182.299L194.395 187.552L207.451 143.392H216.379L229.147 187.648L241.051 143.392H249.691Z" fill="url(#paint1_radial)"/>
<path d="M36.432 40.816V46.144H22.752V91H16.2V46.144H2.448V40.816H36.432ZM61.7051 91.648C58.0091 91.648 54.6491 90.808 51.6251 89.128C48.6491 87.448 46.2971 85.072 44.5691 82C42.8891 78.88 42.0491 75.28 42.0491 71.2C42.0491 67.168 42.9131 63.616 44.6411 60.544C46.4171 57.424 48.8171 55.048 51.8411 53.416C54.8651 51.736 58.2491 50.896 61.9931 50.896C65.7371 50.896 69.1211 51.736 72.1451 53.416C75.1691 55.048 77.5451 57.4 79.2731 60.472C81.0491 63.544 81.9371 67.12 81.9371 71.2C81.9371 75.28 81.0251 78.88 79.2011 82C77.4251 85.072 75.0011 87.448 71.9291 89.128C68.8571 90.808 65.4491 91.648 61.7051 91.648ZM61.7051 85.888C64.0571 85.888 66.2651 85.336 68.3291 84.232C70.3931 83.128 72.0491 81.472 73.2971 79.264C74.5931 77.056 75.2411 74.368 75.2411 71.2C75.2411 68.032 74.6171 65.344 73.3691 63.136C72.1211 60.928 70.4891 59.296 68.4731 58.24C66.4571 57.136 64.2731 56.584 61.9211 56.584C59.5211 56.584 57.3131 57.136 55.2971 58.24C53.3291 59.296 51.7451 60.928 50.5451 63.136C49.3451 65.344 48.7451 68.032 48.7451 71.2C48.7451 74.416 49.3211 77.128 50.4731 79.336C51.6731 81.544 53.2571 83.2 55.2251 84.304C57.1931 85.36 59.3531 85.888 61.7051 85.888Z" fill="url(#paint2_radial)"/>
<defs>
<linearGradient id="paint0_linear" x1="176" y1="0" x2="176" y2="123" gradientUnits="userSpaceOnUse">
<stop stop-color="#2AF598"/>
<stop offset="1" stop-color="#0098FD"/>
</linearGradient>
<radialGradient id="paint1_radial" cx="0" cy="0" r="1" gradientUnits="userSpaceOnUse" gradientTransform="translate(127.5 136.5) rotate(90) scale(46.5 127.5)">
<stop stop-color="#80D8FF"/>
<stop offset="0.973958" stop-color="#0098FD"/>
</radialGradient>
<radialGradient id="paint2_radial" cx="0" cy="0" r="1" gradientUnits="userSpaceOnUse" gradientTransform="translate(48 57.5) rotate(90) scale(45.5 48)">
<stop stop-color="#80D8FF"/>
<stop offset="1" stop-color="#0098FD"/>
</radialGradient>
</defs>
</svg>
