<svg width="532" height="201" viewBox="0 0 532 201" fill="none" xmlns="http://www.w3.org/2000/svg">
<path d="M439.975 46.9809C448.181 46.9809 454.858 41.1536 454.858 33.9909C454.858 26.8273 448.181 21 439.975 21C431.768 21 425.091 26.8273 425.091 33.9909C425.091 41.1536 431.768 46.9809 439.975 46.9809ZM439.975 29.66C442.711 29.66 444.935 31.6027 444.935 33.9909C444.935 36.3782 442.711 38.3209 439.975 38.3209C437.239 38.3209 435.014 36.3782 435.014 33.9909C435.014 31.6027 437.239 29.66 439.975 29.66ZM482.92 21L496.024 38.586L482.663 55.6418H522.079V98.294H502.235V106.738H481.646V114.965H470.981V92.0069L454.114 85.5123V70.1223L462.616 76.8591H482.391V68.1991H466.447L450.251 55.364C447.526 52.743 443.594 51.095 439.23 51.095H427.821V51.1161C423.159 51.3456 418.892 53.4628 416.282 56.8799L405 71.6509V90.0667H414.921V74.2736L422.86 63.8809V107.866L408.743 127.375L417.132 132L432.781 110.372V59.755H439.23C440.431 59.755 441.533 60.1293 442.392 60.7509L442.345 60.7958L443.132 61.4191C443.793 62.155 444.192 63.0798 444.192 64.085V91.1567L461.059 97.6521V123.193H442.951V131.853H470.981V123.625H491.569V115.398H512.157V106.954H532V21L482.92 21ZM501.466 46.9809L507.949 38.7054L501.209 29.66H522.079V46.9809H501.466Z" fill="url(#paint0_linear)"/>
<path d="M60.72 48.36V57.24H37.92V132H27V57.24H4.08V48.36H60.72Z" fill="url(#paint1_radial)"/>
<path d="M84.18 132.945C78.79 132.945 73.89 131.72 69.48 129.27C65.14 126.82 61.71 123.355 59.19 118.875C56.74 114.325 55.515 109.075 55.515 103.125C55.515 97.245 56.775 92.065 59.295 87.585C61.885 83.035 65.385 79.57 69.795 77.19C74.205 74.74 79.14 73.515 84.6 73.515C90.06 73.515 94.995 74.74 99.405 77.19C103.815 79.57 107.28 83 109.8 87.48C112.39 91.96 113.685 97.175 113.685 103.125C113.685 109.075 112.355 114.325 109.695 118.875C107.105 123.355 103.57 126.82 99.09 129.27C94.61 131.72 89.64 132.945 84.18 132.945ZM84.18 124.545C87.61 124.545 90.83 123.74 93.84 122.13C96.85 120.52 99.265 118.105 101.085 114.885C102.975 111.665 103.92 107.745 103.92 103.125C103.92 98.505 103.01 94.585 101.19 91.365C99.37 88.145 96.99 85.765 94.05 84.225C91.11 82.615 87.925 81.81 84.495 81.81C80.995 81.81 77.775 82.615 74.835 84.225C71.965 85.765 69.655 88.145 67.905 91.365C66.155 94.585 65.28 98.505 65.28 103.125C65.28 107.815 66.12 111.77 67.8 114.99C69.55 118.21 71.86 120.625 74.73 122.235C77.6 123.775 80.75 124.545 84.18 124.545Z" fill="url(#paint2_radial)"/>
<path d="M174.768 132L154.128 108.768V132H145.392V60.96H154.128V102.72L174.384 79.392H186.576L161.808 105.6L186.672 132H174.768ZM220.43 78.432C226.83 78.432 232.014 80.384 235.982 84.288C239.95 88.128 241.934 93.696 241.934 100.992V132H233.294V102.24C233.294 96.992 231.982 92.992 229.358 90.24C226.734 87.424 223.15 86.016 218.606 86.016C213.998 86.016 210.318 87.456 207.566 90.336C204.878 93.216 203.534 97.408 203.534 102.912V132H194.798V79.392H203.534V86.88C205.262 84.192 207.598 82.112 210.542 80.64C213.55 79.168 216.846 78.432 220.43 78.432ZM279.149 132.864C274.221 132.864 269.741 131.744 265.709 129.504C261.741 127.264 258.605 124.096 256.301 120C254.061 115.84 252.941 111.04 252.941 105.6C252.941 100.224 254.093 95.488 256.397 91.392C258.765 87.232 261.965 84.064 265.997 81.888C270.029 79.648 274.541 78.528 279.533 78.528C284.525 78.528 289.037 79.648 293.069 81.888C297.101 84.064 300.269 87.2 302.573 91.296C304.941 95.392 306.125 100.16 306.125 105.6C306.125 111.04 304.909 115.84 302.477 120C300.109 124.096 296.877 127.264 292.781 129.504C288.685 131.744 284.141 132.864 279.149 132.864ZM279.149 125.184C282.285 125.184 285.229 124.448 287.981 122.976C290.733 121.504 292.941 119.296 294.605 116.352C296.333 113.408 297.197 109.824 297.197 105.6C297.197 101.376 296.365 97.792 294.701 94.848C293.037 91.904 290.861 89.728 288.173 88.32C285.485 86.848 282.573 86.112 279.437 86.112C276.237 86.112 273.293 86.848 270.605 88.32C267.981 89.728 265.869 91.904 264.269 94.848C262.669 97.792 261.869 101.376 261.869 105.6C261.869 109.888 262.637 113.504 264.173 116.448C265.773 119.392 267.885 121.6 270.509 123.072C273.133 124.48 276.013 125.184 279.149 125.184ZM387.691 79.392L371.275 132H362.251L349.579 90.24L336.907 132H327.883L311.371 79.392H320.299L332.395 123.552L345.451 79.392H354.379L367.147 123.648L379.051 79.392H387.691Z" fill="url(#paint3_radial)"/>
<path d="M209.952 167.424C209.12 167.424 208.416 167.136 207.84 166.56C207.264 165.984 206.976 165.28 206.976 164.448C206.976 163.616 207.264 162.912 207.84 162.336C208.416 161.76 209.12 161.472 209.952 161.472C210.752 161.472 211.424 161.76 211.968 162.336C212.544 162.912 212.832 163.616 212.832 164.448C212.832 165.28 212.544 165.984 211.968 166.56C211.424 167.136 210.752 167.424 209.952 167.424ZM212.064 171.696V198H207.696V171.696H212.064ZM217.877 184.752C217.877 182.064 218.421 179.712 219.509 177.696C220.597 175.648 222.085 174.064 223.973 172.944C225.893 171.824 228.037 171.264 230.405 171.264C232.453 171.264 234.357 171.744 236.117 172.704C237.877 173.632 239.221 174.864 240.149 176.4V162.48H244.565V198H240.149V193.056C239.285 194.624 238.005 195.92 236.309 196.944C234.613 197.936 232.629 198.432 230.357 198.432C228.021 198.432 225.893 197.856 223.973 196.704C222.085 195.552 220.597 193.936 219.509 191.856C218.421 189.776 217.877 187.408 217.877 184.752ZM240.149 184.8C240.149 182.816 239.749 181.088 238.949 179.616C238.149 178.144 237.061 177.024 235.685 176.256C234.341 175.456 232.853 175.056 231.221 175.056C229.589 175.056 228.101 175.44 226.757 176.208C225.413 176.976 224.341 178.096 223.541 179.568C222.741 181.04 222.341 182.768 222.341 184.752C222.341 186.768 222.741 188.528 223.541 190.032C224.341 191.504 225.413 192.64 226.757 193.44C228.101 194.208 229.589 194.592 231.221 194.592C232.853 194.592 234.341 194.208 235.685 193.44C237.061 192.64 238.149 191.504 238.949 190.032C239.749 188.528 240.149 186.784 240.149 184.8ZM275.946 183.84C275.946 184.672 275.898 185.552 275.802 186.48H254.778C254.938 189.072 255.818 191.104 257.418 192.576C259.05 194.016 261.018 194.736 263.322 194.736C265.21 194.736 266.778 194.304 268.026 193.44C269.306 192.544 270.202 191.36 270.714 189.888H275.418C274.714 192.416 273.306 194.48 271.194 196.08C269.082 197.648 266.458 198.432 263.322 198.432C260.826 198.432 258.586 197.872 256.602 196.752C254.65 195.632 253.114 194.048 251.994 192C250.874 189.92 250.314 187.52 250.314 184.8C250.314 182.08 250.858 179.696 251.946 177.648C253.034 175.6 254.554 174.032 256.506 172.944C258.49 171.824 260.762 171.264 263.322 171.264C265.818 171.264 268.026 171.808 269.946 172.896C271.866 173.984 273.338 175.488 274.362 177.408C275.418 179.296 275.946 181.44 275.946 183.84ZM271.434 182.928C271.434 181.264 271.066 179.84 270.33 178.656C269.594 177.44 268.586 176.528 267.306 175.92C266.058 175.28 264.666 174.96 263.13 174.96C260.922 174.96 259.034 175.664 257.466 177.072C255.93 178.48 255.05 180.432 254.826 182.928H271.434ZM280.08 184.752C280.08 182.064 280.624 179.712 281.712 177.696C282.8 175.648 284.288 174.064 286.176 172.944C288.096 171.824 290.224 171.264 292.56 171.264C294.864 171.264 296.864 171.76 298.56 172.752C300.256 173.744 301.52 174.992 302.352 176.496V171.696H306.768V198H302.352V193.104C301.488 194.64 300.192 195.92 298.464 196.944C296.768 197.936 294.784 198.432 292.512 198.432C290.176 198.432 288.064 197.856 286.176 196.704C284.288 195.552 282.8 193.936 281.712 191.856C280.624 189.776 280.08 187.408 280.08 184.752ZM302.352 184.8C302.352 182.816 301.952 181.088 301.152 179.616C300.352 178.144 299.264 177.024 297.888 176.256C296.544 175.456 295.056 175.056 293.424 175.056C291.792 175.056 290.304 175.44 288.96 176.208C287.616 176.976 286.544 178.096 285.744 179.568C284.944 181.04 284.544 182.768 284.544 184.752C284.544 186.768 284.944 188.528 285.744 190.032C286.544 191.504 287.616 192.64 288.96 193.44C290.304 194.208 291.792 194.592 293.424 194.592C295.056 194.592 296.544 194.208 297.888 193.44C299.264 192.64 300.352 191.504 301.152 190.032C301.952 188.528 302.352 186.784 302.352 184.8ZM323.461 198.432C321.445 198.432 319.637 198.096 318.037 197.424C316.437 196.72 315.173 195.76 314.245 194.544C313.317 193.296 312.805 191.872 312.709 190.272H317.221C317.349 191.584 317.957 192.656 319.045 193.488C320.165 194.32 321.621 194.736 323.413 194.736C325.077 194.736 326.389 194.368 327.349 193.632C328.309 192.896 328.789 191.968 328.789 190.848C328.789 189.696 328.277 188.848 327.253 188.304C326.229 187.728 324.645 187.168 322.501 186.624C320.549 186.112 318.949 185.6 317.701 185.088C316.485 184.544 315.429 183.76 314.533 182.736C313.669 181.68 313.237 180.304 313.237 178.608C313.237 177.264 313.637 176.032 314.437 174.912C315.237 173.792 316.373 172.912 317.845 172.272C319.317 171.6 320.997 171.264 322.885 171.264C325.797 171.264 328.149 172 329.941 173.472C331.733 174.944 332.693 176.96 332.821 179.52H328.453C328.357 178.144 327.797 177.04 326.773 176.208C325.781 175.376 324.437 174.96 322.741 174.96C321.173 174.96 319.925 175.296 318.997 175.968C318.069 176.64 317.605 177.52 317.605 178.608C317.605 179.472 317.877 180.192 318.421 180.768C318.997 181.312 319.701 181.76 320.533 182.112C321.397 182.432 322.581 182.8 324.085 183.216C325.973 183.728 327.509 184.24 328.693 184.752C329.877 185.232 330.885 185.968 331.717 186.96C332.581 187.952 333.029 189.248 333.061 190.848C333.061 192.288 332.661 193.584 331.861 194.736C331.061 195.888 329.925 196.8 328.453 197.472C327.013 198.112 325.349 198.432 323.461 198.432ZM357.352 175.296V190.8C357.352 192.08 357.624 192.992 358.168 193.536C358.712 194.048 359.656 194.304 361 194.304H364.216V198H360.28C357.848 198 356.024 197.44 354.808 196.32C353.592 195.2 352.984 193.36 352.984 190.8V175.296H349.576V171.696H352.984V165.072H357.352V171.696H364.216V175.296H357.352ZM380.981 198.432C378.517 198.432 376.277 197.872 374.261 196.752C372.277 195.632 370.709 194.048 369.557 192C368.437 189.92 367.877 187.52 367.877 184.8C367.877 182.112 368.453 179.744 369.605 177.696C370.789 175.616 372.389 174.032 374.405 172.944C376.421 171.824 378.677 171.264 381.173 171.264C383.669 171.264 385.925 171.824 387.941 172.944C389.957 174.032 391.541 175.6 392.693 177.648C393.877 179.696 394.469 182.08 394.469 184.8C394.469 187.52 393.861 189.92 392.645 192C391.461 194.048 389.845 195.632 387.797 196.752C385.749 197.872 383.477 198.432 380.981 198.432ZM380.981 194.592C382.549 194.592 384.021 194.224 385.397 193.488C386.773 192.752 387.877 191.648 388.709 190.176C389.573 188.704 390.005 186.912 390.005 184.8C390.005 182.688 389.589 180.896 388.757 179.424C387.925 177.952 386.837 176.864 385.493 176.16C384.149 175.424 382.693 175.056 381.125 175.056C379.525 175.056 378.053 175.424 376.709 176.16C375.397 176.864 374.341 177.952 373.541 179.424C372.741 180.896 372.341 182.688 372.341 184.8C372.341 186.944 372.725 188.752 373.493 190.224C374.293 191.696 375.349 192.8 376.661 193.536C377.973 194.24 379.413 194.592 380.981 194.592ZM417.377 162.48V198H413.009V162.48H417.377ZM448.821 183.84C448.821 184.672 448.773 185.552 448.677 186.48H427.653C427.813 189.072 428.693 191.104 430.293 192.576C431.925 194.016 433.893 194.736 436.197 194.736C438.085 194.736 439.653 194.304 440.901 193.44C442.181 192.544 443.077 191.36 443.589 189.888H448.293C447.589 192.416 446.181 194.48 444.069 196.08C441.957 197.648 439.333 198.432 436.197 198.432C433.701 198.432 431.461 197.872 429.477 196.752C427.525 195.632 425.989 194.048 424.869 192C423.749 189.92 423.189 187.52 423.189 184.8C423.189 182.08 423.733 179.696 424.821 177.648C425.909 175.6 427.429 174.032 429.381 172.944C431.365 171.824 433.637 171.264 436.197 171.264C438.693 171.264 440.901 171.808 442.821 172.896C444.741 173.984 446.213 175.488 447.237 177.408C448.293 179.296 448.821 181.44 448.821 183.84ZM444.309 182.928C444.309 181.264 443.941 179.84 443.205 178.656C442.469 177.44 441.461 176.528 440.181 175.92C438.933 175.28 437.541 174.96 436.005 174.96C433.797 174.96 431.909 175.664 430.341 177.072C428.805 178.48 427.925 180.432 427.701 182.928H444.309ZM452.955 184.752C452.955 182.064 453.499 179.712 454.587 177.696C455.675 175.648 457.163 174.064 459.051 172.944C460.971 171.824 463.099 171.264 465.435 171.264C467.739 171.264 469.739 171.76 471.435 172.752C473.131 173.744 474.395 174.992 475.227 176.496V171.696H479.643V198H475.227V193.104C474.363 194.64 473.067 195.92 471.339 196.944C469.643 197.936 467.659 198.432 465.387 198.432C463.051 198.432 460.939 197.856 459.051 196.704C457.163 195.552 455.675 193.936 454.587 191.856C453.499 189.776 452.955 187.408 452.955 184.752ZM475.227 184.8C475.227 182.816 474.827 181.088 474.027 179.616C473.227 178.144 472.139 177.024 470.763 176.256C469.419 175.456 467.931 175.056 466.299 175.056C464.667 175.056 463.179 175.44 461.835 176.208C460.491 176.976 459.419 178.096 458.619 179.568C457.819 181.04 457.419 182.768 457.419 184.752C457.419 186.768 457.819 188.528 458.619 190.032C459.419 191.504 460.491 192.64 461.835 193.44C463.179 194.208 464.667 194.592 466.299 194.592C467.931 194.592 469.419 194.208 470.763 193.44C472.139 192.64 473.227 191.504 474.027 190.032C474.827 188.528 475.227 186.784 475.227 184.8ZM491.392 175.968C492.16 174.464 493.248 173.296 494.656 172.464C496.096 171.632 497.84 171.216 499.888 171.216V175.728H498.736C493.84 175.728 491.392 178.384 491.392 183.696V198H487.024V171.696H491.392V175.968ZM517.746 171.216C520.946 171.216 523.538 172.192 525.522 174.144C527.506 176.064 528.498 178.848 528.498 182.496V198H524.178V183.12C524.178 180.496 523.522 178.496 522.21 177.12C520.898 175.712 519.106 175.008 516.834 175.008C514.53 175.008 512.69 175.728 511.314 177.168C509.97 178.608 509.298 180.704 509.298 183.456V198H504.93V171.696H509.298V175.44C510.162 174.096 511.33 173.056 512.802 172.32C514.306 171.584 515.954 171.216 517.746 171.216Z" fill="url(#paint4_radial)"/>
<defs>
<linearGradient id="paint0_linear" x1="468.5" y1="21" x2="468.5" y2="132" gradientUnits="userSpaceOnUse">
<stop stop-color="#2AF598"/>
<stop offset="1" stop-color="#0098FD"/>
</linearGradient>
<radialGradient id="paint1_radial" cx="0" cy="0" r="1" gradientUnits="userSpaceOnUse" gradientTransform="translate(75.5 45.5) rotate(90) scale(45.5 75.5)">
<stop stop-color="#80D8FF"/>
<stop offset="1" stop-color="#0098FD"/>
</radialGradient>
<radialGradient id="paint2_radial" cx="0" cy="0" r="1" gradientUnits="userSpaceOnUse" gradientTransform="translate(94.5 61.5) rotate(90) scale(45.5 43.5)">
<stop stop-color="#80D8FF"/>
<stop offset="1" stop-color="#0098FD"/>
</radialGradient>
<radialGradient id="paint3_radial" cx="0" cy="0" r="1" gradientUnits="userSpaceOnUse" gradientTransform="translate(265.5 72.5) rotate(90) scale(46.5 127.5)">
<stop stop-color="#80D8FF"/>
<stop offset="0.973958" stop-color="#0098FD"/>
</radialGradient>
<radialGradient id="paint4_radial" cx="0" cy="0" r="1" gradientUnits="userSpaceOnUse" gradientTransform="translate(368 173) rotate(90) scale(28 164)">
<stop stop-color="#80D8FF"/>
<stop offset="0.973958" stop-color="#0098FD"/>
</radialGradient>
</defs>
</svg>
